<?xml version="1.0" encoding="UTF-8" standalone="no"?>
<!DOCTYPE svg PUBLIC "-//W3C//DTD SVG 1.1//EN"
"http://www.w3.org/Graphics/SVG/1.1/DTD/svg11.dtd">
<svg version="1.1" xmlns="http://www.w3.org/2000/svg" xmlns:xlink="http://www.w3.org/1999/xlink">
<defs>
<style type="text/css"><![CDATA[
.g6_4{
fill: none;
stroke: #FF0000;
stroke-width: 2;
stroke-linecap: round;
stroke-linejoin: miter;
stroke-miterlimit: 8;
}
.g7_4{
fill: none;
stroke: #FF0000;
stroke-width: 3;
stroke-linecap: butt;
stroke-linejoin: round;
stroke-miterlimit: 8;
}
.g5_4{
fill: #FFFFFF;
}
.g8_4{
fill: none;
stroke: #FF0000;
stroke-width: 3;
stroke-linecap: round;
stroke-linejoin: round;
stroke-miterlimit: 8;
}
.g3_4{
fill: none;
stroke: #FF0000;
stroke-width: 3;
stroke-linecap: butt;
stroke-linejoin: round;
}
.g1_4{
fill: none;
stroke: #000000;
stroke-width: 1;
stroke-linecap: butt;
stroke-linejoin: miter;
}
.g2_4{
}
.g4_4{
fill: #FF0000;
}
]]></style>
</defs>
<path d="M101.5,91.5l754,0" class="g1_4" />
<path fill-rule="evenodd" d="M101,1142l754,0l0,-2l-754,0l0,2Z" class="g2_4" />
<image x="105" y="34" width="137" height="45" xlink:href="img/1.png" />
<image x="105" y="242" width="677" height="381" xlink:href="img/2.png" />
<path d="M111.1,527.9c0,3.8,1.8,6.8,4.1,6.8l40.9,0c2.3,0,4.1,-3,4.1,-6.8" class="g3_4" />
<path d="M133.8,704.7l0,-155.1l2.2,0l0,155.1ZM130.3,551.1l4.6,-9.1l4.6,9.1Z" class="g4_4" />
<path fill-rule="evenodd" d="M74,748l127,0l0,-38L74,710l0,38Z" class="g5_4" />
<path d="M74,748l127,0l0,-38L74,710l0,38Z" class="g6_4" />
<path d="M356.6,243.5l0,13.9l-1.2,-1.1l1.3,0l0,7.4l-2.3,0l0,-6.3l1.1,1.2l-1.2,0l0,-15.1Zm3.5,18.7l-4.6,9.1l-4.6,-9.1Z" class="g4_4" />
<path fill-rule="evenodd" d="M310,240l91,0l0,-33l-91,0l0,33Z" class="g5_4" />
<path d="M310,240l91,0l0,-33l-91,0l0,33Z" class="g6_4" />
<path fill-rule="evenodd" d="M787,592l108,0l0,-75l-108,0l0,75Z" class="g5_4" />
<path d="M787,592l108,0l0,-75l-108,0l0,75Z" class="g6_4" />
<path d="M782.3,271.3c3,0,5.4,-1.1,5.4,-2.5l0,-24.8c0,-1.3,-2.4,-2.5,-5.4,-2.5" class="g7_4" />
<path d="M803.6,256.8l-7.2,0l0,-2.3l7.2,0Zm-5.7,3.5l-9.1,-4.7l9.2,-4.5Z" class="g4_4" />
<path fill-rule="evenodd" d="M806,270l89,0l0,-30l-89,0l0,30Z" class="g5_4" />
<path d="M806,270l89,0l0,-30l-89,0l0,30Z" class="g6_4" />
<path d="M821.6,512l0,-130.7l1.2,1.2l-20.7,-0.1l0,-2.3l21.8,0.1l0,131.8ZM803.3,385.9l-8.8,-5.3l9.5,-3.8Z" class="g4_4" />
<path fill-rule="evenodd" d="M595,718l164,0l0,-74l-164,0l0,74Z" class="g5_4" />
<path d="M595,718l164,0l0,-74l-164,0l0,74Z" class="g6_4" />
<path d="M782.5,344.7c3,0,5.5,-2.5,5.5,-5.5L788,285c0,-3,-2.5,-5.4,-5.5,-5.4" class="g7_4" />
<path fill-rule="evenodd" d="M807,358l88,0l0,-77l-88,0l0,77Z" class="g5_4" />
<path d="M807,358l88,0l0,-77l-88,0l0,77Z" class="g6_4" />
<path d="M190.6,454.7c-11.5,0,-20.9,9.3,-20.9,20.9l0,117.8c0,11.6,9.4,20.9,20.9,20.9l83.5,0c11.6,0,20.9,-9.3,20.9,-20.9l0,-117.8c0,-11.6,-9.3,-20.9,-20.9,-20.9Z" class="g8_4" />
<path d="M309.4,464.3l0,-22.8l1.1,1.1l-1.2,0l0,-16.4l2.3,0l0,15.3l-1.2,-1.2l1.3,0l0,24Zm-3.5,-36.6l4.5,-9.2l4.6,9.2Z" class="g4_4" />
<path d="M169.7,395.3c0,8.9,11,16.1,24.6,16.1l245.3,0c13.6,0,24.5,-7.2,24.5,-16.1" class="g7_4" />
<path d="M183.5,275.5c-7.6,0,-13.8,6.1,-13.8,13.7l0,55.1c0,7.6,6.2,13.7,13.8,13.7l216,0c7.6,0,13.8,-6.1,13.8,-13.7l0,-55.1c0,-7.6,-6.2,-13.7,-13.8,-13.7Z" class="g8_4" />
<path fill-rule="evenodd" d="M305,501l169,0l0,-33l-169,0l0,33Z" class="g5_4" />
<path d="M305,501l169,0l0,-33l-169,0l0,33Z" class="g6_4" />
<path fill-rule="evenodd" d="M245,710l164,0l0,-75l-164,0l0,75Z" class="g5_4" />
<path d="M245,710l164,0l0,-75l-164,0l0,75Z" class="g6_4" />
<path d="M784.9,398.9c3,0,5.4,-1.1,5.4,-2.5l0,-24.8c0,-1.4,-2.4,-2.5,-5.4,-2.5" class="g7_4" />
<path d="M804.2,306.3l-7.2,0l0,-2.3l7.2,0Zm-5.7,3.5l-9.1,-4.7l9.2,-4.5Z" class="g4_4" />
<path d="M240.9,680.4l0,2l-40.8,0l0,-56.3l2.3,0l0,55.1l-1.2,-1.1l38.5,0l-1.1,1.1l0,-0.8ZM196.6,627.6l4.6,-9.2l4.6,9.2Z" class="g4_4" />
<path d="M588.3,692.5l0,2l-40.7,0l0,-56.3l2.2,0l0,55.2l-1.1,-1.2l38.5,0l-1.1,1.2l0,-0.9ZM544.1,639.8l4.6,-9.2l4.6,9.2Z" class="g4_4" />
<path fill-rule="evenodd" d="M261,351l53,0l0,-11l-53,0l0,11Z" class="g5_4" />
</svg>