<?xml version="1.0" encoding="UTF-8" standalone="no"?>
<!DOCTYPE svg PUBLIC "-//W3C//DTD SVG 1.1//EN"
"http://www.w3.org/Graphics/SVG/1.1/DTD/svg11.dtd">
<svg version="1.1" xmlns="http://www.w3.org/2000/svg" xmlns:xlink="http://www.w3.org/1999/xlink">
<defs>
<style type="text/css"><![CDATA[
.g1_5{
fill: none;
stroke: #000000;
stroke-width: 1;
stroke-linecap: butt;
stroke-linejoin: miter;
}
.g2_5{
}
.g3_5{
fill: #1F497D;
}
]]></style>
</defs>
<path d="M101.5,91.5l754,0" class="g1_5" />
<path fill-rule="evenodd" d="M101,1142l754,0l0,-2l-754,0l0,2Z" class="g2_5" />
<image x="105" y="34" width="137" height="45" xlink:href="img/1.png" />
<path fill-rule="evenodd" d="M387,199l181,0l0,-2l-181,0l0,2Z" class="g3_5" />
<path d="M291.5,313.5l46,0" class="g1_5" />
<path d="M95.5,262.5l188,0" class="g1_5" />
<path d="M283.5,262.5l577,0" class="g1_5" />
<path d="M94.5,388.5l0,-126" class="g1_5" />
<path d="M283.5,388.5l0,-126" class="g1_5" />
<path d="M860.5,388.5l0,-126" class="g1_5" />
<path d="M291.5,437.5l59,0" class="g1_5" />
<path d="M94.5,389.5l0,-1" class="g1_5" />
<path d="M95.5,389.5l188,0" class="g1_5" />
<path d="M283.5,389.5l0,-1" class="g1_5" />
<path d="M283.5,389.5l577,0" class="g1_5" />
<path d="M860.5,389.5l0,-1" class="g1_5" />
<path d="M94.5,517.5l0,-128" class="g1_5" />
<path d="M283.5,517.5l0,-128" class="g1_5" />
<path d="M860.5,517.5l0,-128" class="g1_5" />
<path d="M291.5,542.5l84,0" class="g1_5" />
<path d="M94.5,518.5l0,-1" class="g1_5" />
<path d="M95.5,518.5l188,0" class="g1_5" />
<path d="M283.5,518.5l0,-1" class="g1_5" />
<path d="M283.5,518.5l577,0" class="g1_5" />
<path d="M860.5,518.5l0,-1" class="g1_5" />
<path d="M94.5,647.5l0,-129" class="g1_5" />
<path d="M283.5,647.5l0,-129" class="g1_5" />
<path d="M860.5,647.5l0,-129" class="g1_5" />
<path d="M291.5,696.5l73,0" class="g1_5" />
<path d="M95.5,647.5l188,0" class="g1_5" />
<path d="M283.5,647.5l577,0" class="g1_5" />
<path d="M94.5,778.5l0,-131" class="g1_5" />
<path d="M283.5,778.5l0,-131" class="g1_5" />
<path d="M860.5,778.5l0,-131" class="g1_5" />
<path d="M291.5,830.5l103,0" class="g1_5" />
<path d="M94.5,779.5l0,-1" class="g1_5" />
<path d="M95.5,779.5l188,0" class="g1_5" />
<path d="M283.5,779.5l0,-1" class="g1_5" />
<path d="M283.5,779.5l577,0" class="g1_5" />
<path d="M860.5,779.5l0,-1" class="g1_5" />
<path d="M94.5,907.5l0,-128" class="g1_5" />
<path d="M283.5,907.5l0,-128" class="g1_5" />
<path d="M860.5,907.5l0,-128" class="g1_5" />
<path d="M291.5,969.5l53,0" class="g1_5" />
<path d="M94.5,908.5l0,-1" class="g1_5" />
<path d="M95.5,908.5l188,0" class="g1_5" />
<path d="M283.5,908.5l0,-1" class="g1_5" />
<path d="M283.5,908.5l577,0" class="g1_5" />
<path d="M860.5,908.5l0,-1" class="g1_5" />
<path d="M94.5,1032.5l0,-124" class="g1_5" />
<path d="M94.5,1033.5l0,-1" class="g1_5" />
<path d="M94.5,1033.5l0,-1" class="g1_5" />
<path d="M95.5,1033.5l188,0" class="g1_5" />
<path d="M283.5,1032.5l0,-124" class="g1_5" />
<path d="M283.5,1033.5l0,-1" class="g1_5" />
<path d="M283.5,1033.5l577,0" class="g1_5" />
<path d="M860.5,1032.5l0,-124" class="g1_5" />
<path d="M860.5,1033.5l0,-1" class="g1_5" />
<path d="M860.5,1033.5l0,-1" class="g1_5" />
<image x="100" y="255" width="180" height="128" xlink:href="img/2.png" />
<image x="123" y="278" width="110" height="57" xlink:href="img/3.png" />
<image x="100" y="382" width="180" height="128" xlink:href="img/4.png" />
<image x="123" y="405" width="109" height="58" xlink:href="img/5.png" />
<image x="100" y="511" width="180" height="129" xlink:href="img/6.png" />
<image x="123" y="534" width="110" height="58" xlink:href="img/7.png" />
<image x="100" y="640" width="180" height="131" xlink:href="img/8.png" />
<image x="123" y="663" width="110" height="60" xlink:href="img/9.png" />
<image x="100" y="771" width="180" height="129" xlink:href="img/10.png" />
<image x="123" y="795" width="110" height="58" xlink:href="img/11.png" />
<image x="100" y="900" width="180" height="126" xlink:href="img/12.png" />
<image x="123" y="924" width="110" height="54" xlink:href="img/13.png" />
</svg>