<?xml version="1.0" encoding="UTF-8" standalone="no"?>
<!DOCTYPE svg PUBLIC "-//W3C//DTD SVG 1.1//EN"
"http://www.w3.org/Graphics/SVG/1.1/DTD/svg11.dtd">
<svg version="1.1" xmlns="http://www.w3.org/2000/svg" xmlns:xlink="http://www.w3.org/1999/xlink">
<defs>
<style type="text/css"><![CDATA[
.g6_12{
fill: #D7D7D7;
}
.g5_12{
fill: #FF0000;
}
.g1_12{
fill: none;
stroke: #000000;
stroke-width: 1;
stroke-linecap: butt;
stroke-linejoin: miter;
}
.g4_12{
fill: none;
stroke: #FF0000;
stroke-width: 2;
stroke-linecap: round;
stroke-linejoin: miter;
}
.g3_12{
fill: #FFFFFF;
}
.g2_12{
fill: none;
stroke: #FF0000;
stroke-width: 3;
stroke-linecap: round;
stroke-linejoin: miter;
}
.g7_12{
fill: none;
stroke: #FF0000;
stroke-width: 2;
stroke-linecap: butt;
stroke-linejoin: round;
}
]]></style>
</defs>
<path d="M103.5,206.5l202,0" class="g1_12" />
<image x="105" y="227" width="594" height="211" xlink:href="img/1.png" />
<image x="105" y="457" width="597" height="211" xlink:href="img/2.png" />
<image x="105" y="749" width="594" height="141" xlink:href="img/3.png" />
<path d="M343.5,313.5l44,0l0,-44l-44,0l0,44Z" class="g2_12" />
<path fill-rule="evenodd" d="M607,700l299,0l0,-204l-299,0l0,204Z" class="g3_12" />
<path d="M607,700l299,0l0,-204l-299,0l0,204Z" class="g4_12" />
<path d="M714.7,369.6l-285.5,0l0,-75.2l0.8,0.8l-28.1,0l0,-1.6l28.9,0l0,75.2L430,368l284.7,0ZM403.4,299l-9.2,-4.6l9.2,-4.6Z" class="g5_12" />
<path fill-rule="evenodd" d="M719,381l167,0l0,-81l-167,0l0,81Z" class="g3_12" />
<path d="M719,381l167,0l0,-81l-167,0l0,81Z" class="g4_12" />
<path fill-rule="evenodd" d="M645,930l210,0l0,-82l-210,0l0,82Z" class="g3_12" />
<path d="M645,930l210,0l0,-82l-210,0l0,82Z" class="g4_12" />
<path d="M641.1,871l0,1.4l-21.3,0l0,-44.6l1.5,0l0,43.9l-0.7,-0.8l19.7,0l-0.8,0.8l0,-0.7ZM616,829.4l4.6,-9.2l4.6,9.2Z" class="g5_12" />
<path d="M601.6,679.8l0,1.6l-100.7,0l0,-116.2l1.5,0l0,115.4l-0.8,-0.7l99.3,0l-0.8,0.7l0,-0.8ZM497.1,566.7l4.5,-9.1l4.6,9.1Z" class="g5_12" />
<path d="M600.9,513.6l-318.9,0l0.7,-0.8l0,14.6l-1.6,0L281.2,512l319.7,0ZM286.5,526l-4.9,9l-4.2,-9.3Z" class="g5_12" />
<path fill-rule="evenodd" d="M269,384l54,0l0,-11l-54,0l0,11Z" class="g6_12" />
<path d="M797.5,191.7l-169.2,0l0.8,-0.7l0,16.8l-1.5,0l-0.1,-17.6l170,0ZM632.9,206.1l-4.2,9.3l-5,-9Z" class="g5_12" />
<path d="M797,190l0,104" class="g7_12" />
</svg>