<?xml version="1.0" encoding="UTF-8" standalone="no"?>
<!DOCTYPE svg PUBLIC "-//W3C//DTD SVG 1.1//EN"
"http://www.w3.org/Graphics/SVG/1.1/DTD/svg11.dtd">
<svg version="1.1" xmlns="http://www.w3.org/2000/svg" xmlns:xlink="http://www.w3.org/1999/xlink">
<defs>
<style type="text/css"><![CDATA[
.g6_7{
fill: none;
stroke: #FF0000;
stroke-width: 2;
stroke-linecap: round;
stroke-linejoin: miter;
}
.g2_7{
fill: #1F497D;
}
.g1_7{
}
.g5_7{
fill: #FFFFFF;
}
.g4_7{
fill: #FF0000;
}
.g3_7{
fill: none;
stroke: #000000;
stroke-width: 1;
stroke-linecap: butt;
stroke-linejoin: miter;
}
.g7_7{
fill: none;
stroke: #FF0000;
stroke-width: 3;
stroke-linecap: round;
stroke-linejoin: miter;
}
]]></style>
</defs>
<path fill-rule="evenodd" d="M187,123l229,0l0,-2l-229,0l0,2Z" class="g1_7" />
<path fill-rule="evenodd" d="M416,123l352,0l0,-2l-352,0l0,2Z" class="g2_7" />
<path d="M103.5,301.5l224,0" class="g3_7" />
<path d="M473.5,802.5l118,0" class="g3_7" />
<image x="100" y="314" width="310" height="189" xlink:href="img/1.png" />
<image x="123" y="338" width="240" height="118" xlink:href="img/2.png" />
<image x="105" y="822" width="541" height="136" xlink:href="img/3.png" />
<path d="M451.6,389.7l-66.5,0l0,-2.3l66.5,0Zm-65,3.4l-9.2,-4.6l9.2,-4.6Z" class="g4_7" />
<path fill-rule="evenodd" d="M458,703l423,0l0,-383l-423,0l0,383Z" class="g5_7" />
<path d="M458,703l423,0l0,-383l-423,0l0,383Z" class="g6_7" />
<path d="M559.5,876.5l79,0l0,-26l-79,0l0,26Z" class="g7_7" />
<path d="M697.5,866.9l-27.6,0l1.1,-1.1l0,1.2l-21.2,0l0,-2.3l20.1,0l-1.2,1.2l0,-1.3l28.8,0Zm-46.1,3.6l-9.2,-4.6l9.2,-4.6Z" class="g4_7" />
<path fill-rule="evenodd" d="M703,896l129,0l0,-57l-129,0l0,57Z" class="g5_7" />
<path d="M703,896l129,0l0,-57l-129,0l0,57Z" class="g6_7" />
</svg>